<?xml version="1.0" encoding="UTF-8" standalone="no"?>
<!DOCTYPE svg PUBLIC "-//W3C//DTD SVG 1.1//EN"
 "http://www.w3.org/Graphics/SVG/1.1/DTD/svg11.dtd">
<!-- Generated by graphviz version 2.38.0 (20140413.2041)
 -->
<!-- Title: G Pages: 1 -->
<svg width="484pt" height="564pt"
 viewBox="0.00 0.00 484.29 564.00" xmlns="http://www.w3.org/2000/svg" xmlns:xlink="http://www.w3.org/1999/xlink">
<g id="graph0" class="graph" transform="scale(1 1) rotate(0) translate(4 560)">
<title>G</title>
<polygon fill="white" stroke="none" points="-4,4 -4,-560 480.293,-560 480.293,4 -4,4"/>
<g id="clust1" class="cluster"><title>cluster_Global</title>
<path fill="none" stroke="gray" d="M20,-98C20,-98 456.293,-98 456.293,-98 462.293,-98 468.293,-104 468.293,-110 468.293,-110 468.293,-536 468.293,-536 468.293,-542 462.293,-548 456.293,-548 456.293,-548 20,-548 20,-548 14,-548 8,-542 8,-536 8,-536 8,-110 8,-110 8,-104 14,-98 20,-98"/>
<text text-anchor="middle" x="238.146" y="-535.2" font-family="Times,serif" font-size="11.00" fill="gray">Global</text>
</g>
<g id="clust2" class="cluster"><title>cluster_\Octopush</title>
<path fill="none" stroke="gray" d="M28,-106C28,-106 448.293,-106 448.293,-106 454.293,-106 460.293,-112 460.293,-118 460.293,-118 460.293,-508 460.293,-508 460.293,-514 454.293,-520 448.293,-520 448.293,-520 28,-520 28,-520 22,-520 16,-514 16,-508 16,-508 16,-118 16,-118 16,-112 22,-106 28,-106"/>
<text text-anchor="middle" x="238.146" y="-507.2" font-family="Times,serif" font-size="11.00" fill="gray">Octopush</text>
</g>
<g id="clust3" class="cluster"><title>cluster_\Octopush\Exceptions</title>
<path fill="none" stroke="gray" d="M263.293,-268C263.293,-268 440.293,-268 440.293,-268 446.293,-268 452.293,-274 452.293,-280 452.293,-280 452.293,-436 452.293,-436 452.293,-442 446.293,-448 440.293,-448 440.293,-448 263.293,-448 263.293,-448 257.293,-448 251.293,-442 251.293,-436 251.293,-436 251.293,-280 251.293,-280 251.293,-274 257.293,-268 263.293,-268"/>
<text text-anchor="middle" x="351.793" y="-435.2" font-family="Times,serif" font-size="11.00" fill="gray">Exceptions</text>
</g>
<g id="clust4" class="cluster"><title>cluster_\Octopush\Contracts</title>
<path fill="none" stroke="gray" d="M36,-420C36,-420 180,-420 180,-420 186,-420 192,-426 192,-432 192,-432 192,-480 192,-480 192,-486 186,-492 180,-492 180,-492 36,-492 36,-492 30,-492 24,-486 24,-480 24,-480 24,-432 24,-432 24,-426 30,-420 36,-420"/>
<text text-anchor="middle" x="108" y="-479.2" font-family="Times,serif" font-size="11.00" fill="gray">Contracts</text>
</g>
<!-- \\Octopush\\Exceptions\\CurlResponseException -->
<g id="node1" class="node"><title>\\Octopush\\Exceptions\\CurlResponseException</title>
<polygon fill="none" stroke="black" points="430.793,-366 272.793,-366 272.793,-330 430.793,-330 430.793,-366"/>
<text text-anchor="middle" x="351.793" y="-345.2" font-family="Courier,monospace" font-size="11.00">CurlResponseException</text>
</g>
<!-- \\RuntimeException -->
<g id="node9" class="node"><title>\\RuntimeException</title>
<ellipse fill="none" stroke="black" cx="108" cy="-72" rx="79.0865" ry="18"/>
<text text-anchor="middle" x="108" y="-68.3" font-family="Times,serif" font-size="14.00" fill="gray">\RuntimeException</text>
</g>
<!-- \\Octopush\\Exceptions\\CurlResponseException&#45;&gt;\\RuntimeException -->
<g id="edge2" class="edge"><title>\\Octopush\\Exceptions\\CurlResponseException&#45;&gt;\\RuntimeException</title>
<path fill="none" stroke="black" d="M272.672,-333.362C265.031,-330.046 257.735,-325.982 251.293,-321 175.757,-262.581 133.537,-151.941 117.109,-100.113"/>
<polygon fill="none" stroke="black" points="120.367,-98.8013 114.079,-90.2747 113.678,-100.862 120.367,-98.8013"/>
</g>
<!-- \\Octopush\\Exceptions\\CurlResponseCodeException -->
<g id="node2" class="node"><title>\\Octopush\\Exceptions\\CurlResponseCodeException</title>
<polygon fill="none" stroke="black" points="444.293,-312 259.293,-312 259.293,-276 444.293,-276 444.293,-312"/>
<text text-anchor="middle" x="351.793" y="-291.2" font-family="Courier,monospace" font-size="11.00">CurlResponseCodeException</text>
</g>
<!-- \\ErrorException -->
<g id="node10" class="node"><title>\\ErrorException</title>
<ellipse fill="none" stroke="black" cx="108" cy="-18" rx="67.6881" ry="18"/>
<text text-anchor="middle" x="108" y="-14.3" font-family="Times,serif" font-size="14.00" fill="gray">\ErrorException</text>
</g>
<!-- \\Octopush\\Exceptions\\CurlResponseCodeException&#45;&gt;\\ErrorException -->
<g id="edge3" class="edge"><title>\\Octopush\\Exceptions\\CurlResponseCodeException&#45;&gt;\\ErrorException</title>
<path fill="none" stroke="black" d="M259.082,-278.34C256.325,-276.438 253.714,-274.331 251.293,-272 176.177,-199.677 263.525,-120.876 192,-45 186.998,-39.6936 180.943,-35.4282 174.409,-31.9998"/>
<polygon fill="none" stroke="black" points="175.805,-28.7897 165.254,-27.8244 172.9,-35.1586 175.805,-28.7897"/>
</g>
<!-- \\Octopush\\Exceptions\\CurlRequiredException -->
<g id="node3" class="node"><title>\\Octopush\\Exceptions\\CurlRequiredException</title>
<polygon fill="none" stroke="black" points="430.793,-420 272.793,-420 272.793,-384 430.793,-384 430.793,-420"/>
<text text-anchor="middle" x="351.793" y="-399.2" font-family="Courier,monospace" font-size="11.00">CurlRequiredException</text>
</g>
<!-- \\Octopush\\Exceptions\\CurlRequiredException&#45;&gt;\\RuntimeException -->
<g id="edge4" class="edge"><title>\\Octopush\\Exceptions\\CurlRequiredException&#45;&gt;\\RuntimeException</title>
<path fill="none" stroke="black" d="M272.506,-387.989C264.851,-384.557 257.599,-380.294 251.293,-375 163.115,-300.975 126.199,-160.069 114.011,-100.123"/>
<polygon fill="none" stroke="black" points="117.432,-99.3754 112.078,-90.2328 110.562,-100.719 117.432,-99.3754"/>
</g>
<!-- \\Octopush\\Contracts\\OctopushApiInterface -->
<g id="node4" class="node"><title>\\Octopush\\Contracts\\OctopushApiInterface</title>
<polygon fill="none" stroke="black" points="184,-464 32,-464 32,-428 184,-428 184,-464"/>
<text text-anchor="middle" x="108" y="-443.2" font-family="Courier,monospace" font-size="11.00">OctopushApiInterface</text>
</g>
<!-- \\Octopush\\Api -->
<g id="node5" class="node"><title>\\Octopush\\Api</title>
<polygon fill="none" stroke="black" points="378.793,-492 324.793,-492 324.793,-456 378.793,-456 378.793,-492"/>
<text text-anchor="middle" x="351.793" y="-471.2" font-family="Courier,monospace" font-size="11.00">Api</text>
</g>
<!-- \\Octopush\\Api&#45;&gt;\\Octopush\\Contracts\\OctopushApiInterface -->
<g id="edge1" class="edge"><title>\\Octopush\\Api&#45;&gt;\\Octopush\\Contracts\\OctopushApiInterface</title>
<path fill="none" stroke="black" stroke-dasharray="1,5" d="M324.457,-470.95C293.326,-467.345 239.957,-461.165 194.126,-455.858"/>
<polygon fill="none" stroke="black" points="194.507,-452.378 184.17,-454.705 193.701,-459.332 194.507,-452.378"/>
</g>
<!-- \\Octopush\\Curl -->
<g id="node6" class="node"><title>\\Octopush\\Curl</title>
<polygon fill="none" stroke="black" points="378.793,-258 324.793,-258 324.793,-222 378.793,-222 378.793,-258"/>
<text text-anchor="middle" x="351.793" y="-237.2" font-family="Courier,monospace" font-size="11.00">Curl</text>
</g>
<!-- \\Octopush\\Message -->
<g id="node7" class="node"><title>\\Octopush\\Message</title>
<polygon fill="none" stroke="black" points="383.793,-204 319.793,-204 319.793,-168 383.793,-168 383.793,-204"/>
<text text-anchor="middle" x="351.793" y="-183.2" font-family="Courier,monospace" font-size="11.00">Message</text>
</g>
<!-- \\Octopush\\Client -->
<g id="node8" class="node"><title>\\Octopush\\Client</title>
<polygon fill="none" stroke="black" points="380.293,-150 323.293,-150 323.293,-114 380.293,-114 380.293,-150"/>
<text text-anchor="middle" x="351.793" y="-129.2" font-family="Courier,monospace" font-size="11.00">Client</text>
</g>
</g>
</svg>
